<?xml version="1.0" standalone="no"?>
<!DOCTYPE svg PUBLIC "-//W3C//DTD SVG 20010904//EN"
 "http://www.w3.org/TR/2001/REC-SVG-20010904/DTD/svg10.dtd">
<svg version="1.0" xmlns="http://www.w3.org/2000/svg"
 width="32.000000pt" height="32.000000pt" viewBox="0 0 32.000000 32.000000"
 preserveAspectRatio="xMidYMid meet">

<g transform="translate(0.000000,32.000000) scale(0.100000,-0.100000)"
fill="#000000" stroke="none">
<path d="M0 268 l0 -53 20 33 c11 18 34 41 52 52 l33 20 -52 0 -53 0 0 -52z"/>
<path d="M248 300 c18 -11 41 -34 52 -52 l20 -33 0 53 0 52 -52 0 -53 0 33
-20z"/>
<path d="M90 160 l0 -70 70 0 70 0 0 70 0 70 -70 0 -70 0 0 -70z m130 0 l0
-60 -60 0 -60 0 0 40 c0 42 16 56 22 19 7 -51 71 -49 75 2 2 24 2 24 -5 -1
-11 -36 -57 -36 -57 0 0 18 6 26 23 28 12 2 22 10 22 18 0 8 9 14 20 14 18 0
20 -7 20 -60z"/>
<path d="M0 53 l0 -53 53 0 52 0 -33 20 c-18 11 -41 34 -52 52 l-20 33 0 -52z"/>
<path d="M298 70 c-9 -16 -32 -39 -50 -50 l-33 -20 53 0 52 0 0 50 c0 28 -1
50 -2 50 -2 0 -11 -14 -20 -30z"/>
</g>
</svg>
